# xmcd
# 
# Track frame offsets:
#     150
#     17335
#     33993
#     47725
#     63125
#     80295
#     97063
#     115770
#     136733
#     153063
#     169610
#     191973
#     213080
#     241258
#     266745
#     283508
#     298560
#     318068
# 
# Disc length: 4549
# 
# Revision: 1
# Processed by: cddbd v1.5.2PL0 Copyright (c) Steve Scherf et al.
# Submitted via: BonkEnc v1.0.15
# 
DISCID=e711c312
DTITLE=Prince - The Hits 1
DYEAR=1993
DGENRE=Rock
TTITLE0=When Doves Cry
TTITLE1=Pop Life
TTITLE2=Soft And Wet
TTITLE3=I Feel For You
TTITLE4=Why You Wanna Treat Me So Bad?
TTITLE5=When You Were Mine
TTITLE6=Uptown
TTITLE7=Let's Go Crazy
TTITLE8=1999
TTITLE9=I Could Never Take The Place Of Your Man
TTITLE10=Nothing Compares 2 U
TTITLE11=Adore
TTITLE12=Pink Cashmere
TTITLE13=Alphabeth St.
TTITLE14=Sign 'o' The Times
TTITLE15=Thieves In The Temple
TTITLE16=Diamonds And Pearls
TTITLE17=7
EXTD=
EXTT0=
EXTT1=
EXTT2=
EXTT3=
EXTT4=
EXTT5=
EXTT6=
EXTT7=
EXTT8=
EXTT9=
EXTT10=
EXTT11=
EXTT12=
EXTT13=
EXTT14=
EXTT15=
EXTT16=
EXTT17=
PLAYORDER=
